<svg xmlns="http://www.w3.org/2000/svg" viewBox="0 0 24 24" role="img" aria-label="BDD Pilot">
  <path fill="currentColor" d="M12 2.9 13.05 4.8h-2.1L12 2.9z"/>
  <g fill="none" stroke="currentColor" stroke-linecap="round" stroke-linejoin="round">
    <path stroke-width="1.3" d="M5.4 14.8a8.6 8.6 0 0 1 13.2 0"/>
    <path stroke-width="1.15" d="M7.1 12.2a5.9 5.9 0 0 1 9.8 0"/>
    <path stroke-width="1" d="M7.2 16.6h9.6M8.3 18.3h7.4M9.6 19.8h4.8"/>
    <path stroke-width="0.85" d="M9.2 11.1v.9M10.6 10.5v.9M12 10.2v.9M13.4 10.5v.9M14.8 11.1v.9"/>
  </g>
  <path
    fill="currentColor"
    d="M12 6.75c2.05 0 3.55 2.85 3.55 4.55 0 .95-.55 1.75-1.35 2.1l-.25 2.35H9.05l-.25-2.35c-.8-.35-1.35-1.15-1.35-2.1C7.45 9.6 8.95 6.75 12 6.75zm0 1.35c-1.15 0-2.05 1.75-2.05 3.2 0 .55.3 1 .75 1.2l.15 1.55h2.3l.15-1.55c.45-.2.75-.65.75-1.2 0-1.45-.9-3.2-2.05-3.2z"
  />
  <ellipse cx="12" cy="9.85" rx="1.05" ry="1.25" fill="none" stroke="currentColor" stroke-width="0.75" opacity="0.45"/>
</svg>
